<svg id="visual" viewBox="0 0 960 300" width="960" height="300" xmlns="http://www.w3.org/2000/svg" xmlns:xlink="http://www.w3.org/1999/xlink" version="1.1"><rect x="0" y="0" width="960" height="300" fill="#202731"></rect><path d="M0 51L8.5 61.2C17 71.3 34 91.7 50.8 110.7C67.7 129.7 84.3 147.3 101.2 148.3C118 149.3 135 133.7 151.8 122.5C168.7 111.3 185.3 104.7 202.2 94.5C219 84.3 236 70.7 252.8 75.8C269.7 81 286.3 105 303.2 103.8C320 102.7 337 76.3 353.8 74C370.7 71.7 387.3 93.3 404.2 108.8C421 124.3 438 133.7 454.8 128.7C471.7 123.7 488.3 104.3 505.2 93.2C522 82 539 79 555.8 83C572.7 87 589.3 98 606.2 110C623 122 640 135 656.8 136C673.7 137 690.3 126 707.2 123.2C724 120.3 741 125.7 757.8 128.7C774.7 131.7 791.3 132.3 808.2 125C825 117.7 842 102.3 858.8 96.5C875.7 90.7 892.3 94.3 909.2 87.8C926 81.3 943 64.7 951.5 56.3L960 48L960 0L951.5 0C943 0 926 0 909.2 0C892.3 0 875.7 0 858.8 0C842 0 825 0 808.2 0C791.3 0 774.7 0 757.8 0C741 0 724 0 707.2 0C690.3 0 673.7 0 656.8 0C640 0 623 0 606.2 0C589.3 0 572.7 0 555.8 0C539 0 522 0 505.2 0C488.3 0 471.7 0 454.8 0C438 0 421 0 404.2 0C387.3 0 370.7 0 353.8 0C337 0 320 0 303.2 0C286.3 0 269.7 0 252.8 0C236 0 219 0 202.2 0C185.3 0 168.7 0 151.8 0C135 0 118 0 101.2 0C84.3 0 67.7 0 50.8 0C34 0 17 0 8.5 0L0 0Z" fill="#202731"></path><path d="M0 137L8.5 127C17 117 34 97 50.8 82C67.7 67 84.3 57 101.2 62.2C118 67.3 135 87.7 151.8 88.2C168.7 88.7 185.3 69.3 202.2 75.3C219 81.3 236 112.7 252.8 122.2C269.7 131.7 286.3 119.3 303.2 105.3C320 91.3 337 75.7 353.8 81C370.7 86.3 387.3 112.7 404.2 126.5C421 140.3 438 141.7 454.8 142.2C471.7 142.7 488.3 142.3 505.2 127.7C522 113 539 84 555.8 85.7C572.7 87.3 589.3 119.7 606.2 120.2C623 120.7 640 89.3 656.8 79.8C673.7 70.3 690.3 82.7 707.2 90.3C724 98 741 101 757.8 109.7C774.7 118.3 791.3 132.7 808.2 122.2C825 111.7 842 76.3 858.8 76.3C875.7 76.3 892.3 111.7 909.2 128.7C926 145.7 943 144.3 951.5 143.7L960 143L960 0L951.5 0C943 0 926 0 909.2 0C892.3 0 875.7 0 858.8 0C842 0 825 0 808.2 0C791.3 0 774.7 0 757.8 0C741 0 724 0 707.2 0C690.3 0 673.7 0 656.8 0C640 0 623 0 606.2 0C589.3 0 572.7 0 555.8 0C539 0 522 0 505.2 0C488.3 0 471.7 0 454.8 0C438 0 421 0 404.2 0C387.3 0 370.7 0 353.8 0C337 0 320 0 303.2 0C286.3 0 269.7 0 252.8 0C236 0 219 0 202.2 0C185.3 0 168.7 0 151.8 0C135 0 118 0 101.2 0C84.3 0 67.7 0 50.8 0C34 0 17 0 8.5 0L0 0Z" fill="#262e42"></path><path d="M0 69L8.5 79.3C17 89.7 34 110.3 50.8 116.2C67.7 122 84.3 113 101.2 101.3C118 89.7 135 75.3 151.8 69.2C168.7 63 185.3 65 202.2 70.5C219 76 236 85 252.8 94.7C269.7 104.3 286.3 114.7 303.2 106.3C320 98 337 71 353.8 73C370.7 75 387.3 106 404.2 121.2C421 136.3 438 135.7 454.8 135.5C471.7 135.3 488.3 135.7 505.2 132.8C522 130 539 124 555.8 116.3C572.7 108.7 589.3 99.3 606.2 88.8C623 78.3 640 66.7 656.8 59.2C673.7 51.7 690.3 48.3 707.2 54C724 59.7 741 74.3 757.8 73.8C774.7 73.3 791.3 57.7 808.2 57.8C825 58 842 74 858.8 80.8C875.7 87.7 892.3 85.3 909.2 78C926 70.7 943 58.3 951.5 52.2L960 46L960 0L951.5 0C943 0 926 0 909.2 0C892.3 0 875.7 0 858.8 0C842 0 825 0 808.2 0C791.3 0 774.7 0 757.8 0C741 0 724 0 707.2 0C690.3 0 673.7 0 656.8 0C640 0 623 0 606.2 0C589.3 0 572.7 0 555.8 0C539 0 522 0 505.2 0C488.3 0 471.7 0 454.8 0C438 0 421 0 404.2 0C387.3 0 370.7 0 353.8 0C337 0 320 0 303.2 0C286.3 0 269.7 0 252.8 0C236 0 219 0 202.2 0C185.3 0 168.7 0 151.8 0C135 0 118 0 101.2 0C84.3 0 67.7 0 50.8 0C34 0 17 0 8.5 0L0 0Z" fill="#323352"></path><path d="M0 54L8.5 62.2C17 70.3 34 86.7 50.8 95.2C67.7 103.7 84.3 104.3 101.2 94.2C118 84 135 63 151.8 51.5C168.7 40 185.3 38 202.2 44.5C219 51 236 66 252.8 65.2C269.7 64.3 286.3 47.7 303.2 54.3C320 61 337 91 353.8 94C370.7 97 387.3 73 404.2 70.3C421 67.7 438 86.3 454.8 89.2C471.7 92 488.3 79 505.2 78.8C522 78.7 539 91.3 555.8 97.8C572.7 104.3 589.3 104.7 606.2 94.2C623 83.7 640 62.3 656.8 52.7C673.7 43 690.3 45 707.2 49.7C724 54.3 741 61.7 757.8 63.7C774.7 65.7 791.3 62.3 808.2 60.8C825 59.3 842 59.7 858.8 64.2C875.7 68.7 892.3 77.3 909.2 79.2C926 81 943 76 951.5 73.5L960 71L960 0L951.5 0C943 0 926 0 909.2 0C892.3 0 875.7 0 858.8 0C842 0 825 0 808.2 0C791.3 0 774.7 0 757.8 0C741 0 724 0 707.2 0C690.3 0 673.7 0 656.8 0C640 0 623 0 606.2 0C589.3 0 572.7 0 555.8 0C539 0 522 0 505.2 0C488.3 0 471.7 0 454.8 0C438 0 421 0 404.2 0C387.3 0 370.7 0 353.8 0C337 0 320 0 303.2 0C286.3 0 269.7 0 252.8 0C236 0 219 0 202.2 0C185.3 0 168.7 0 151.8 0C135 0 118 0 101.2 0C84.3 0 67.7 0 50.8 0C34 0 17 0 8.5 0L0 0Z" fill="#45365f"></path><path d="M0 32L8.5 41.8C17 51.7 34 71.3 50.8 78.7C67.7 86 84.3 81 101.2 78.8C118 76.7 135 77.3 151.8 70.3C168.7 63.3 185.3 48.7 202.2 45C219 41.3 236 48.7 252.8 53C269.7 57.3 286.3 58.7 303.2 62.3C320 66 337 72 353.8 77.8C370.7 83.7 387.3 89.3 404.2 81.7C421 74 438 53 454.8 48C471.7 43 488.3 54 505.2 59.2C522 64.3 539 63.7 555.8 66.2C572.7 68.7 589.3 74.3 606.2 79.3C623 84.3 640 88.7 656.8 92.5C673.7 96.3 690.3 99.7 707.2 90.7C724 81.7 741 60.3 757.8 60C774.7 59.7 791.3 80.3 808.2 86.5C825 92.7 842 84.3 858.8 82.7C875.7 81 892.3 86 909.2 91C926 96 943 101 951.5 103.5L960 106L960 0L951.5 0C943 0 926 0 909.2 0C892.3 0 875.7 0 858.8 0C842 0 825 0 808.2 0C791.3 0 774.7 0 757.8 0C741 0 724 0 707.2 0C690.3 0 673.7 0 656.8 0C640 0 623 0 606.2 0C589.3 0 572.7 0 555.8 0C539 0 522 0 505.2 0C488.3 0 471.7 0 454.8 0C438 0 421 0 404.2 0C387.3 0 370.7 0 353.8 0C337 0 320 0 303.2 0C286.3 0 269.7 0 252.8 0C236 0 219 0 202.2 0C185.3 0 168.7 0 151.8 0C135 0 118 0 101.2 0C84.3 0 67.7 0 50.8 0C34 0 17 0 8.5 0L0 0Z" fill="#5d3768"></path><path d="M0 55L8.5 56.3C17 57.7 34 60.3 50.8 65.7C67.7 71 84.3 79 101.2 71.7C118 64.3 135 41.7 151.8 36.8C168.7 32 185.3 45 202.2 49.3C219 53.7 236 49.3 252.8 51.8C269.7 54.3 286.3 63.7 303.2 70.7C320 77.7 337 82.3 353.8 81C370.7 79.7 387.3 72.3 404.2 64.8C421 57.3 438 49.7 454.8 50C471.7 50.3 488.3 58.7 505.2 65.2C522 71.7 539 76.3 555.8 80.5C572.7 84.7 589.3 88.3 606.2 80.8C623 73.3 640 54.7 656.8 49C673.7 43.3 690.3 50.7 707.2 59.7C724 68.7 741 79.3 757.8 73.7C774.7 68 791.3 46 808.2 38.3C825 30.7 842 37.3 858.8 49.5C875.7 61.7 892.3 79.3 909.2 79C926 78.7 943 60.3 951.5 51.2L960 42L960 0L951.5 0C943 0 926 0 909.2 0C892.3 0 875.7 0 858.8 0C842 0 825 0 808.2 0C791.3 0 774.7 0 757.8 0C741 0 724 0 707.2 0C690.3 0 673.7 0 656.8 0C640 0 623 0 606.2 0C589.3 0 572.7 0 555.8 0C539 0 522 0 505.2 0C488.3 0 471.7 0 454.8 0C438 0 421 0 404.2 0C387.3 0 370.7 0 353.8 0C337 0 320 0 303.2 0C286.3 0 269.7 0 252.8 0C236 0 219 0 202.2 0C185.3 0 168.7 0 151.8 0C135 0 118 0 101.2 0C84.3 0 67.7 0 50.8 0C34 0 17 0 8.5 0L0 0Z" fill="#77356c"></path><path d="M0 27L8.5 26C17 25 34 23 50.8 23.7C67.7 24.3 84.3 27.7 101.2 31.5C118 35.3 135 39.7 151.8 47.8C168.7 56 185.3 68 202.2 72.3C219 76.7 236 73.3 252.8 67.8C269.7 62.3 286.3 54.7 303.2 48C320 41.3 337 35.7 353.8 30.5C370.7 25.3 387.3 20.7 404.2 24.3C421 28 438 40 454.8 40.3C471.7 40.7 488.3 29.3 505.2 24.3C522 19.3 539 20.7 555.8 30C572.7 39.3 589.3 56.7 606.2 60C623 63.3 640 52.7 656.8 48.7C673.7 44.7 690.3 47.3 707.2 49.3C724 51.3 741 52.7 757.8 49.3C774.7 46 791.3 38 808.2 38.2C825 38.3 842 46.7 858.8 45.7C875.7 44.7 892.3 34.3 909.2 29.3C926 24.3 943 24.7 951.5 24.8L960 25L960 0L951.5 0C943 0 926 0 909.2 0C892.3 0 875.7 0 858.8 0C842 0 825 0 808.2 0C791.3 0 774.7 0 757.8 0C741 0 724 0 707.2 0C690.3 0 673.7 0 656.8 0C640 0 623 0 606.2 0C589.3 0 572.7 0 555.8 0C539 0 522 0 505.2 0C488.3 0 471.7 0 454.8 0C438 0 421 0 404.2 0C387.3 0 370.7 0 353.8 0C337 0 320 0 303.2 0C286.3 0 269.7 0 252.8 0C236 0 219 0 202.2 0C185.3 0 168.7 0 151.8 0C135 0 118 0 101.2 0C84.3 0 67.7 0 50.8 0C34 0 17 0 8.5 0L0 0Z" fill="#91316a"></path><path d="M0 29L8.5 32C17 35 34 41 50.8 45.7C67.7 50.3 84.3 53.7 101.2 51.5C118 49.3 135 41.7 151.8 43.7C168.7 45.7 185.3 57.3 202.2 57.8C219 58.3 236 47.7 252.8 40.8C269.7 34 286.3 31 303.2 29.7C320 28.3 337 28.7 353.8 28.7C370.7 28.7 387.3 28.3 404.2 31.5C421 34.7 438 41.3 454.8 43.2C471.7 45 488.3 42 505.2 39.3C522 36.7 539 34.3 555.8 33.2C572.7 32 589.3 32 606.2 36.5C623 41 640 50 656.8 53.2C673.7 56.3 690.3 53.7 707.2 45.8C724 38 741 25 757.8 19C774.7 13 791.3 14 808.2 18.3C825 22.7 842 30.3 858.8 38.2C875.7 46 892.3 54 909.2 50.8C926 47.7 943 33.3 951.5 26.2L960 19L960 0L951.5 0C943 0 926 0 909.2 0C892.3 0 875.7 0 858.8 0C842 0 825 0 808.2 0C791.3 0 774.7 0 757.8 0C741 0 724 0 707.2 0C690.3 0 673.7 0 656.8 0C640 0 623 0 606.2 0C589.3 0 572.7 0 555.8 0C539 0 522 0 505.2 0C488.3 0 471.7 0 454.8 0C438 0 421 0 404.2 0C387.3 0 370.7 0 353.8 0C337 0 320 0 303.2 0C286.3 0 269.7 0 252.8 0C236 0 219 0 202.2 0C185.3 0 168.7 0 151.8 0C135 0 118 0 101.2 0C84.3 0 67.7 0 50.8 0C34 0 17 0 8.5 0L0 0Z" fill="#aa2d63"></path><path d="M0 23L8.5 23.8C17 24.7 34 26.3 50.8 30.7C67.7 35 84.3 42 101.2 39.8C118 37.7 135 26.3 151.8 19.7C168.7 13 185.3 11 202.2 16C219 21 236 33 252.8 40C269.7 47 286.3 49 303.2 48.3C320 47.7 337 44.3 353.8 43.7C370.7 43 387.3 45 404.2 43.3C421 41.7 438 36.3 454.8 30.3C471.7 24.3 488.3 17.7 505.2 21.5C522 25.3 539 39.7 555.8 40.2C572.7 40.7 589.3 27.3 606.2 22.3C623 17.3 640 20.7 656.8 24.2C673.7 27.7 690.3 31.3 707.2 31.8C724 32.3 741 29.7 757.8 31.7C774.7 33.7 791.3 40.3 808.2 37.5C825 34.7 842 22.3 858.8 22C875.7 21.7 892.3 33.3 909.2 38.3C926 43.3 943 41.7 951.5 40.8L960 40L960 0L951.5 0C943 0 926 0 909.2 0C892.3 0 875.7 0 858.8 0C842 0 825 0 808.2 0C791.3 0 774.7 0 757.8 0C741 0 724 0 707.2 0C690.3 0 673.7 0 656.8 0C640 0 623 0 606.2 0C589.3 0 572.7 0 555.8 0C539 0 522 0 505.2 0C488.3 0 471.7 0 454.8 0C438 0 421 0 404.2 0C387.3 0 370.7 0 353.8 0C337 0 320 0 303.2 0C286.3 0 269.7 0 252.8 0C236 0 219 0 202.2 0C185.3 0 168.7 0 151.8 0C135 0 118 0 101.2 0C84.3 0 67.7 0 50.8 0C34 0 17 0 8.5 0L0 0Z" fill="#c02b57"></path><path d="M0 13L8.5 16.7C17 20.3 34 27.7 50.8 29.2C67.7 30.7 84.3 26.3 101.2 21.5C118 16.7 135 11.3 151.8 11C168.7 10.7 185.3 15.3 202.2 16C219 16.7 236 13.3 252.8 13.7C269.7 14 286.3 18 303.2 22.3C320 26.7 337 31.3 353.8 34.2C370.7 37 387.3 38 404.2 36.3C421 34.7 438 30.3 454.8 26.2C471.7 22 488.3 18 505.2 18.2C522 18.3 539 22.7 555.8 22.3C572.7 22 589.3 17 606.2 14.8C623 12.7 640 13.3 656.8 18.3C673.7 23.3 690.3 32.7 707.2 32.2C724 31.7 741 21.3 757.8 20.3C774.7 19.3 791.3 27.7 808.2 30C825 32.3 842 28.7 858.8 28.3C875.7 28 892.3 31 909.2 32.2C926 33.3 943 32.7 951.5 32.3L960 32L960 0L951.5 0C943 0 926 0 909.2 0C892.3 0 875.7 0 858.8 0C842 0 825 0 808.2 0C791.3 0 774.7 0 757.8 0C741 0 724 0 707.2 0C690.3 0 673.7 0 656.8 0C640 0 623 0 606.2 0C589.3 0 572.7 0 555.8 0C539 0 522 0 505.2 0C488.3 0 471.7 0 454.8 0C438 0 421 0 404.2 0C387.3 0 370.7 0 353.8 0C337 0 320 0 303.2 0C286.3 0 269.7 0 252.8 0C236 0 219 0 202.2 0C185.3 0 168.7 0 151.8 0C135 0 118 0 101.2 0C84.3 0 67.7 0 50.8 0C34 0 17 0 8.5 0L0 0Z" fill="#d13147"></path><path d="M0 18L8.5 16C17 14 34 10 50.8 8C67.7 6 84.3 6 101.2 8.2C118 10.3 135 14.7 151.8 15.3C168.7 16 185.3 13 202.2 11.3C219 9.7 236 9.3 252.8 8C269.7 6.7 286.3 4.3 303.2 5.2C320 6 337 10 353.8 13.7C370.7 17.3 387.3 20.7 404.2 22.5C421 24.3 438 24.7 454.8 21.8C471.7 19 488.3 13 505.2 12.8C522 12.7 539 18.3 555.8 19C572.7 19.7 589.3 15.3 606.2 11.7C623 8 640 5 656.8 6.5C673.7 8 690.3 14 707.2 18C724 22 741 24 757.8 24.3C774.7 24.7 791.3 23.3 808.2 21C825 18.7 842 15.3 858.8 11.8C875.7 8.3 892.3 4.7 909.2 6.5C926 8.3 943 15.7 951.5 19.3L960 23L960 0L951.5 0C943 0 926 0 909.2 0C892.3 0 875.7 0 858.8 0C842 0 825 0 808.2 0C791.3 0 774.7 0 757.8 0C741 0 724 0 707.2 0C690.3 0 673.7 0 656.8 0C640 0 623 0 606.2 0C589.3 0 572.7 0 555.8 0C539 0 522 0 505.2 0C488.3 0 471.7 0 454.8 0C438 0 421 0 404.2 0C387.3 0 370.7 0 353.8 0C337 0 320 0 303.2 0C286.3 0 269.7 0 252.8 0C236 0 219 0 202.2 0C185.3 0 168.7 0 151.8 0C135 0 118 0 101.2 0C84.3 0 67.7 0 50.8 0C34 0 17 0 8.5 0L0 0Z" fill="#dd3f31"></path></svg>