<svg id="visual" viewBox="0 0 960 300" width="960" height="300" xmlns="http://www.w3.org/2000/svg" xmlns:xlink="http://www.w3.org/1999/xlink" version="1.1"><rect x="0" y="0" width="960" height="300" fill="#202731"></rect><path d="M0 107L8.5 110C17 113 34 119 50.8 122.7C67.7 126.3 84.3 127.7 101.2 132.5C118 137.3 135 145.7 151.8 143.7C168.7 141.7 185.3 129.3 202.2 135C219 140.7 236 164.3 252.8 173.8C269.7 183.3 286.3 178.7 303.2 173.8C320 169 337 164 353.8 161.3C370.7 158.7 387.3 158.3 404.2 165C421 171.7 438 185.3 454.8 192.8C471.7 200.3 488.3 201.7 505.2 199C522 196.3 539 189.7 555.8 184C572.7 178.3 589.3 173.7 606.2 174.5C623 175.3 640 181.7 656.8 173.3C673.7 165 690.3 142 707.2 138.5C724 135 741 151 757.8 155.2C774.7 159.3 791.3 151.7 808.2 146.8C825 142 842 140 858.8 139.8C875.7 139.7 892.3 141.3 909.2 143.2C926 145 943 147 951.5 148L960 149L960 301L951.5 301C943 301 926 301 909.2 301C892.3 301 875.7 301 858.8 301C842 301 825 301 808.2 301C791.3 301 774.7 301 757.8 301C741 301 724 301 707.2 301C690.3 301 673.7 301 656.8 301C640 301 623 301 606.2 301C589.3 301 572.7 301 555.8 301C539 301 522 301 505.2 301C488.3 301 471.7 301 454.8 301C438 301 421 301 404.2 301C387.3 301 370.7 301 353.8 301C337 301 320 301 303.2 301C286.3 301 269.7 301 252.8 301C236 301 219 301 202.2 301C185.3 301 168.7 301 151.8 301C135 301 118 301 101.2 301C84.3 301 67.7 301 50.8 301C34 301 17 301 8.5 301L0 301Z" fill="#202731"></path><path d="M0 156L8.5 167C17 178 34 200 50.8 205.8C67.7 211.7 84.3 201.3 101.2 188.3C118 175.3 135 159.7 151.8 161C168.7 162.3 185.3 180.7 202.2 185.8C219 191 236 183 252.8 184.3C269.7 185.7 286.3 196.3 303.2 205.5C320 214.7 337 222.3 353.8 215.3C370.7 208.3 387.3 186.7 404.2 168.5C421 150.3 438 135.7 454.8 130.8C471.7 126 488.3 131 505.2 140.2C522 149.3 539 162.7 555.8 175.2C572.7 187.7 589.3 199.3 606.2 198.3C623 197.3 640 183.7 656.8 183.5C673.7 183.3 690.3 196.7 707.2 195.8C724 195 741 180 757.8 180.3C774.7 180.7 791.3 196.3 808.2 205.7C825 215 842 218 858.8 210.8C875.7 203.7 892.3 186.3 909.2 171.7C926 157 943 145 951.5 139L960 133L960 301L951.5 301C943 301 926 301 909.2 301C892.3 301 875.7 301 858.8 301C842 301 825 301 808.2 301C791.3 301 774.7 301 757.8 301C741 301 724 301 707.2 301C690.3 301 673.7 301 656.8 301C640 301 623 301 606.2 301C589.3 301 572.7 301 555.8 301C539 301 522 301 505.2 301C488.3 301 471.7 301 454.8 301C438 301 421 301 404.2 301C387.3 301 370.7 301 353.8 301C337 301 320 301 303.2 301C286.3 301 269.7 301 252.8 301C236 301 219 301 202.2 301C185.3 301 168.7 301 151.8 301C135 301 118 301 101.2 301C84.3 301 67.7 301 50.8 301C34 301 17 301 8.5 301L0 301Z" fill="#242e43"></path><path d="M0 175L8.5 177.7C17 180.3 34 185.7 50.8 189.7C67.7 193.7 84.3 196.3 101.2 200.8C118 205.3 135 211.7 151.8 212.8C168.7 214 185.3 210 202.2 204.8C219 199.7 236 193.3 252.8 191.8C269.7 190.3 286.3 193.7 303.2 192.3C320 191 337 185 353.8 183.2C370.7 181.3 387.3 183.7 404.2 189.2C421 194.7 438 203.3 454.8 201C471.7 198.7 488.3 185.3 505.2 178.5C522 171.7 539 171.3 555.8 168C572.7 164.7 589.3 158.3 606.2 153.8C623 149.3 640 146.7 656.8 157.7C673.7 168.7 690.3 193.3 707.2 197.3C724 201.3 741 184.7 757.8 171.5C774.7 158.3 791.3 148.7 808.2 147.5C825 146.3 842 153.7 858.8 164C875.7 174.3 892.3 187.7 909.2 188.5C926 189.3 943 177.7 951.5 171.8L960 166L960 301L951.5 301C943 301 926 301 909.2 301C892.3 301 875.7 301 858.8 301C842 301 825 301 808.2 301C791.3 301 774.7 301 757.8 301C741 301 724 301 707.2 301C690.3 301 673.7 301 656.8 301C640 301 623 301 606.2 301C589.3 301 572.7 301 555.8 301C539 301 522 301 505.2 301C488.3 301 471.7 301 454.8 301C438 301 421 301 404.2 301C387.3 301 370.7 301 353.8 301C337 301 320 301 303.2 301C286.3 301 269.7 301 252.8 301C236 301 219 301 202.2 301C185.3 301 168.7 301 151.8 301C135 301 118 301 101.2 301C84.3 301 67.7 301 50.8 301C34 301 17 301 8.5 301L0 301Z" fill="#2d3454"></path><path d="M0 169L8.5 178.7C17 188.3 34 207.7 50.8 207C67.7 206.3 84.3 185.7 101.2 187.8C118 190 135 215 151.8 222.2C168.7 229.3 185.3 218.7 202.2 218.2C219 217.7 236 227.3 252.8 219.5C269.7 211.7 286.3 186.3 303.2 176C320 165.7 337 170.3 353.8 182.3C370.7 194.3 387.3 213.7 404.2 217.5C421 221.3 438 209.7 454.8 198.5C471.7 187.3 488.3 176.7 505.2 179.8C522 183 539 200 555.8 203.3C572.7 206.7 589.3 196.3 606.2 191.7C623 187 640 188 656.8 197.5C673.7 207 690.3 225 707.2 229.3C724 233.7 741 224.3 757.8 212C774.7 199.7 791.3 184.3 808.2 176C825 167.7 842 166.3 858.8 177.5C875.7 188.7 892.3 212.3 909.2 218.7C926 225 943 214 951.5 208.5L960 203L960 301L951.5 301C943 301 926 301 909.2 301C892.3 301 875.7 301 858.8 301C842 301 825 301 808.2 301C791.3 301 774.7 301 757.8 301C741 301 724 301 707.2 301C690.3 301 673.7 301 656.8 301C640 301 623 301 606.2 301C589.3 301 572.7 301 555.8 301C539 301 522 301 505.2 301C488.3 301 471.7 301 454.8 301C438 301 421 301 404.2 301C387.3 301 370.7 301 353.8 301C337 301 320 301 303.2 301C286.3 301 269.7 301 252.8 301C236 301 219 301 202.2 301C185.3 301 168.7 301 151.8 301C135 301 118 301 101.2 301C84.3 301 67.7 301 50.8 301C34 301 17 301 8.5 301L0 301Z" fill="#3b3964"></path><path d="M0 237L8.5 238.8C17 240.7 34 244.3 50.8 238.8C67.7 233.3 84.3 218.7 101.2 211C118 203.3 135 202.7 151.8 206C168.7 209.3 185.3 216.7 202.2 215.3C219 214 236 204 252.8 207.8C269.7 211.7 286.3 229.3 303.2 233.7C320 238 337 229 353.8 218C370.7 207 387.3 194 404.2 195C421 196 438 211 454.8 209.5C471.7 208 488.3 190 505.2 188.3C522 186.7 539 201.3 555.8 208.3C572.7 215.3 589.3 214.7 606.2 218.5C623 222.3 640 230.7 656.8 231.5C673.7 232.3 690.3 225.7 707.2 221.3C724 217 741 215 757.8 210.7C774.7 206.3 791.3 199.7 808.2 196.3C825 193 842 193 858.8 190.2C875.7 187.3 892.3 181.7 909.2 184C926 186.3 943 196.7 951.5 201.8L960 207L960 301L951.5 301C943 301 926 301 909.2 301C892.3 301 875.7 301 858.8 301C842 301 825 301 808.2 301C791.3 301 774.7 301 757.8 301C741 301 724 301 707.2 301C690.3 301 673.7 301 656.8 301C640 301 623 301 606.2 301C589.3 301 572.7 301 555.8 301C539 301 522 301 505.2 301C488.3 301 471.7 301 454.8 301C438 301 421 301 404.2 301C387.3 301 370.7 301 353.8 301C337 301 320 301 303.2 301C286.3 301 269.7 301 252.8 301C236 301 219 301 202.2 301C185.3 301 168.7 301 151.8 301C135 301 118 301 101.2 301C84.3 301 67.7 301 50.8 301C34 301 17 301 8.5 301L0 301Z" fill="#4f3c72"></path><path d="M0 240L8.5 242.3C17 244.7 34 249.3 50.8 241.5C67.7 233.7 84.3 213.3 101.2 207C118 200.7 135 208.3 151.8 218.8C168.7 229.3 185.3 242.7 202.2 249.7C219 256.7 236 257.3 252.8 251.3C269.7 245.3 286.3 232.7 303.2 224.5C320 216.3 337 212.7 353.8 217.7C370.7 222.7 387.3 236.3 404.2 243.2C421 250 438 250 454.8 245.5C471.7 241 488.3 232 505.2 225C522 218 539 213 555.8 217C572.7 221 589.3 234 606.2 239.7C623 245.3 640 243.7 656.8 239.7C673.7 235.7 690.3 229.3 707.2 226.8C724 224.3 741 225.7 757.8 218.8C774.7 212 791.3 197 808.2 198.7C825 200.3 842 218.7 858.8 226C875.7 233.3 892.3 229.7 909.2 230.8C926 232 943 238 951.5 241L960 244L960 301L951.5 301C943 301 926 301 909.2 301C892.3 301 875.7 301 858.8 301C842 301 825 301 808.2 301C791.3 301 774.7 301 757.8 301C741 301 724 301 707.2 301C690.3 301 673.7 301 656.8 301C640 301 623 301 606.2 301C589.3 301 572.7 301 555.8 301C539 301 522 301 505.2 301C488.3 301 471.7 301 454.8 301C438 301 421 301 404.2 301C387.3 301 370.7 301 353.8 301C337 301 320 301 303.2 301C286.3 301 269.7 301 252.8 301C236 301 219 301 202.2 301C185.3 301 168.7 301 151.8 301C135 301 118 301 101.2 301C84.3 301 67.7 301 50.8 301C34 301 17 301 8.5 301L0 301Z" fill="#663d7d"></path><path d="M0 254L8.5 252.7C17 251.3 34 248.7 50.8 248.8C67.7 249 84.3 252 101.2 245.2C118 238.3 135 221.7 151.8 216.7C168.7 211.7 185.3 218.3 202.2 220.2C219 222 236 219 252.8 217.2C269.7 215.3 286.3 214.7 303.2 217.8C320 221 337 228 353.8 227.2C370.7 226.3 387.3 217.7 404.2 222.8C421 228 438 247 454.8 249.5C471.7 252 488.3 238 505.2 233.8C522 229.7 539 235.3 555.8 238.7C572.7 242 589.3 243 606.2 242.3C623 241.7 640 239.3 656.8 234.2C673.7 229 690.3 221 707.2 223.5C724 226 741 239 757.8 239C774.7 239 791.3 226 808.2 223.3C825 220.7 842 228.3 858.8 236.5C875.7 244.7 892.3 253.3 909.2 252.2C926 251 943 240 951.5 234.5L960 229L960 301L951.5 301C943 301 926 301 909.2 301C892.3 301 875.7 301 858.8 301C842 301 825 301 808.2 301C791.3 301 774.7 301 757.8 301C741 301 724 301 707.2 301C690.3 301 673.7 301 656.8 301C640 301 623 301 606.2 301C589.3 301 572.7 301 555.8 301C539 301 522 301 505.2 301C488.3 301 471.7 301 454.8 301C438 301 421 301 404.2 301C387.3 301 370.7 301 353.8 301C337 301 320 301 303.2 301C286.3 301 269.7 301 252.8 301C236 301 219 301 202.2 301C185.3 301 168.7 301 151.8 301C135 301 118 301 101.2 301C84.3 301 67.7 301 50.8 301C34 301 17 301 8.5 301L0 301Z" fill="#803b84"></path><path d="M0 269L8.5 269.3C17 269.7 34 270.3 50.8 268.5C67.7 266.7 84.3 262.3 101.2 260.5C118 258.7 135 259.3 151.8 253.2C168.7 247 185.3 234 202.2 234.2C219 234.3 236 247.7 252.8 255.7C269.7 263.7 286.3 266.3 303.2 264.3C320 262.3 337 255.7 353.8 251.7C370.7 247.7 387.3 246.3 404.2 241.5C421 236.7 438 228.3 454.8 229.2C471.7 230 488.3 240 505.2 241.7C522 243.3 539 236.7 555.8 235.8C572.7 235 589.3 240 606.2 243.3C623 246.7 640 248.3 656.8 252.2C673.7 256 690.3 262 707.2 262.7C724 263.3 741 258.7 757.8 253.8C774.7 249 791.3 244 808.2 242.2C825 240.3 842 241.7 858.8 237.2C875.7 232.7 892.3 222.3 909.2 222C926 221.7 943 231.3 951.5 236.2L960 241L960 301L951.5 301C943 301 926 301 909.2 301C892.3 301 875.7 301 858.8 301C842 301 825 301 808.2 301C791.3 301 774.7 301 757.8 301C741 301 724 301 707.2 301C690.3 301 673.7 301 656.8 301C640 301 623 301 606.2 301C589.3 301 572.7 301 555.8 301C539 301 522 301 505.2 301C488.3 301 471.7 301 454.8 301C438 301 421 301 404.2 301C387.3 301 370.7 301 353.8 301C337 301 320 301 303.2 301C286.3 301 269.7 301 252.8 301C236 301 219 301 202.2 301C185.3 301 168.7 301 151.8 301C135 301 118 301 101.2 301C84.3 301 67.7 301 50.8 301C34 301 17 301 8.5 301L0 301Z" fill="#9b3687"></path><path d="M0 233L8.5 232.8C17 232.7 34 232.3 50.8 232.8C67.7 233.3 84.3 234.7 101.2 239.8C118 245 135 254 151.8 255.2C168.7 256.3 185.3 249.7 202.2 248.5C219 247.3 236 251.7 252.8 256.3C269.7 261 286.3 266 303.2 268.8C320 271.7 337 272.3 353.8 269.5C370.7 266.7 387.3 260.3 404.2 259.8C421 259.3 438 264.7 454.8 262.7C471.7 260.7 488.3 251.3 505.2 251.7C522 252 539 262 555.8 262.3C572.7 262.7 589.3 253.3 606.2 253.5C623 253.7 640 263.3 656.8 262C673.7 260.7 690.3 248.3 707.2 243.5C724 238.7 741 241.3 757.8 240.5C774.7 239.7 791.3 235.3 808.2 233C825 230.7 842 230.3 858.8 230C875.7 229.7 892.3 229.3 909.2 234.8C926 240.3 943 251.7 951.5 257.3L960 263L960 301L951.5 301C943 301 926 301 909.2 301C892.3 301 875.7 301 858.8 301C842 301 825 301 808.2 301C791.3 301 774.7 301 757.8 301C741 301 724 301 707.2 301C690.3 301 673.7 301 656.8 301C640 301 623 301 606.2 301C589.3 301 572.7 301 555.8 301C539 301 522 301 505.2 301C488.3 301 471.7 301 454.8 301C438 301 421 301 404.2 301C387.3 301 370.7 301 353.8 301C337 301 320 301 303.2 301C286.3 301 269.7 301 252.8 301C236 301 219 301 202.2 301C185.3 301 168.7 301 151.8 301C135 301 118 301 101.2 301C84.3 301 67.7 301 50.8 301C34 301 17 301 8.5 301L0 301Z" fill="#b72e85"></path><path d="M0 240L8.5 244.2C17 248.3 34 256.7 50.8 257.2C67.7 257.7 84.3 250.3 101.2 248.3C118 246.3 135 249.7 151.8 252.8C168.7 256 185.3 259 202.2 260C219 261 236 260 252.8 261.8C269.7 263.7 286.3 268.3 303.2 268C320 267.7 337 262.3 353.8 258.8C370.7 255.3 387.3 253.7 404.2 256.8C421 260 438 268 454.8 270.5C471.7 273 488.3 270 505.2 266.3C522 262.7 539 258.3 555.8 256.3C572.7 254.3 589.3 254.7 606.2 258.2C623 261.7 640 268.3 656.8 271.5C673.7 274.7 690.3 274.3 707.2 272C724 269.7 741 265.3 757.8 266C774.7 266.7 791.3 272.3 808.2 271.7C825 271 842 264 858.8 259.3C875.7 254.7 892.3 252.3 909.2 249.8C926 247.3 943 244.7 951.5 243.3L960 242L960 301L951.5 301C943 301 926 301 909.2 301C892.3 301 875.7 301 858.8 301C842 301 825 301 808.2 301C791.3 301 774.7 301 757.8 301C741 301 724 301 707.2 301C690.3 301 673.7 301 656.8 301C640 301 623 301 606.2 301C589.3 301 572.7 301 555.8 301C539 301 522 301 505.2 301C488.3 301 471.7 301 454.8 301C438 301 421 301 404.2 301C387.3 301 370.7 301 353.8 301C337 301 320 301 303.2 301C286.3 301 269.7 301 252.8 301C236 301 219 301 202.2 301C185.3 301 168.7 301 151.8 301C135 301 118 301 101.2 301C84.3 301 67.7 301 50.8 301C34 301 17 301 8.5 301L0 301Z" fill="#d1217f"></path><path d="M0 271L8.5 274C17 277 34 283 50.8 282.8C67.7 282.7 84.3 276.3 101.2 274.8C118 273.3 135 276.7 151.8 276C168.7 275.3 185.3 270.7 202.2 271.3C219 272 236 278 252.8 281.7C269.7 285.3 286.3 286.7 303.2 285.3C320 284 337 280 353.8 277.2C370.7 274.3 387.3 272.7 404.2 270.8C421 269 438 267 454.8 265.5C471.7 264 488.3 263 505.2 264C522 265 539 268 555.8 271.2C572.7 274.3 589.3 277.7 606.2 280.2C623 282.7 640 284.3 656.8 284.5C673.7 284.7 690.3 283.3 707.2 282.7C724 282 741 282 757.8 281C774.7 280 791.3 278 808.2 277.3C825 276.7 842 277.3 858.8 274.5C875.7 271.7 892.3 265.3 909.2 267.3C926 269.3 943 279.7 951.5 284.8L960 290L960 301L951.5 301C943 301 926 301 909.2 301C892.3 301 875.7 301 858.8 301C842 301 825 301 808.2 301C791.3 301 774.7 301 757.8 301C741 301 724 301 707.2 301C690.3 301 673.7 301 656.8 301C640 301 623 301 606.2 301C589.3 301 572.7 301 555.8 301C539 301 522 301 505.2 301C488.3 301 471.7 301 454.8 301C438 301 421 301 404.2 301C387.3 301 370.7 301 353.8 301C337 301 320 301 303.2 301C286.3 301 269.7 301 252.8 301C236 301 219 301 202.2 301C185.3 301 168.7 301 151.8 301C135 301 118 301 101.2 301C84.3 301 67.7 301 50.8 301C34 301 17 301 8.5 301L0 301Z" fill="#e91074"></path><path d="M0 275L8.5 277.8C17 280.7 34 286.3 50.8 287.5C67.7 288.7 84.3 285.3 101.2 283.8C118 282.3 135 282.7 151.8 281.5C168.7 280.3 185.3 277.7 202.2 277C219 276.3 236 277.7 252.8 280.5C269.7 283.3 286.3 287.7 303.2 287.2C320 286.7 337 281.3 353.8 279.8C370.7 278.3 387.3 280.7 404.2 280.5C421 280.3 438 277.7 454.8 278.7C471.7 279.7 488.3 284.3 505.2 284.8C522 285.3 539 281.7 555.8 281.5C572.7 281.3 589.3 284.7 606.2 286.8C623 289 640 290 656.8 288.8C673.7 287.7 690.3 284.3 707.2 284.8C724 285.3 741 289.7 757.8 289.8C774.7 290 791.3 286 808.2 284.8C825 283.7 842 285.3 858.8 286.2C875.7 287 892.3 287 909.2 287.5C926 288 943 289 951.5 289.5L960 290L960 301L951.5 301C943 301 926 301 909.2 301C892.3 301 875.7 301 858.8 301C842 301 825 301 808.2 301C791.3 301 774.7 301 757.8 301C741 301 724 301 707.2 301C690.3 301 673.7 301 656.8 301C640 301 623 301 606.2 301C589.3 301 572.7 301 555.8 301C539 301 522 301 505.2 301C488.3 301 471.7 301 454.8 301C438 301 421 301 404.2 301C387.3 301 370.7 301 353.8 301C337 301 320 301 303.2 301C286.3 301 269.7 301 252.8 301C236 301 219 301 202.2 301C185.3 301 168.7 301 151.8 301C135 301 118 301 101.2 301C84.3 301 67.7 301 50.8 301C34 301 17 301 8.5 301L0 301Z" fill="#ff0066"></path></svg>